<svg width="24" height="24" viewBox="0 0 24 24" fill="none" xmlns="http://www.w3.org/2000/svg">
<g clip-path="url(#clip0_139_929)">
<path d="M20.3173 4.36032C18.7612 3.64569 17.119 3.13594 15.4318 2.84382C15.4165 2.84124 15.4008 2.84346 15.3868 2.85018C15.3728 2.85689 15.3613 2.86777 15.3538 2.88132C15.1423 3.25632 14.9083 3.74682 14.7448 4.13082C12.9262 3.85506 11.0764 3.85506 9.25776 4.13082C9.07615 3.70269 8.8698 3.28549 8.63976 2.88132C8.63223 2.86777 8.62069 2.85689 8.60672 2.85018C8.59275 2.84346 8.57705 2.84124 8.56177 2.84382C6.87427 3.13482 5.23176 3.64482 3.67626 4.36032C3.66289 4.36528 3.65172 4.37486 3.64476 4.38732C0.533765 9.03582 -0.319735 13.5703 0.0987651 18.0478C0.101765 18.0698 0.112265 18.0883 0.130265 18.1033C1.94222 19.4446 3.96841 20.4692 6.12276 21.1333C6.13798 21.1381 6.15432 21.1379 6.16943 21.1328C6.18454 21.1277 6.19761 21.1179 6.20677 21.1048C6.66976 20.4748 7.07876 19.8103 7.43376 19.1113C7.44114 19.0969 7.44367 19.0805 7.44097 19.0646C7.43826 19.0486 7.43048 19.034 7.41877 19.0228L7.39176 19.0063C6.7458 18.7573 6.11996 18.4589 5.51976 18.1138C5.50301 18.1043 5.49055 18.0887 5.48497 18.0703C5.47938 18.0519 5.4811 18.032 5.48977 18.0148L5.51226 17.9863C5.63927 17.8913 5.76327 17.7938 5.88426 17.6938C5.89487 17.6853 5.90758 17.6798 5.92106 17.678C5.93454 17.6761 5.94826 17.678 5.96076 17.6833C9.88927 19.4773 14.1418 19.4773 18.0223 17.6833C18.0352 17.6774 18.0495 17.6752 18.0635 17.677C18.0776 17.6789 18.0909 17.6847 18.1018 17.6938C18.2228 17.7938 18.3468 17.8913 18.4738 17.9863C18.4843 17.9935 18.4929 18.0033 18.4986 18.0148C18.5043 18.0262 18.5069 18.039 18.5063 18.0517C18.5057 18.0645 18.5019 18.0769 18.4951 18.0878C18.4884 18.0987 18.479 18.1076 18.4678 18.1138C17.8702 18.4643 17.2433 18.7625 16.5943 19.0048C16.5839 19.0086 16.5745 19.0145 16.5668 19.0223C16.559 19.0301 16.553 19.0395 16.5493 19.0498C16.5456 19.0598 16.5441 19.0704 16.5449 19.081C16.5457 19.0917 16.5487 19.102 16.5538 19.1113C16.9138 19.8088 17.3263 20.4748 17.7793 21.1048C17.7884 21.1179 17.8015 21.1277 17.8166 21.1328C17.8317 21.1379 17.8481 21.1381 17.8633 21.1333C20.0219 20.4728 22.0516 19.448 23.8648 18.1033C23.8738 18.097 23.8813 18.0887 23.8867 18.0791C23.8922 18.0695 23.8954 18.0588 23.8963 18.0478C24.3973 12.8713 23.0578 8.37432 20.3473 4.38882C20.3449 4.38201 20.341 4.37587 20.3357 4.37091C20.3305 4.36595 20.3242 4.36232 20.3173 4.36032ZM8.02027 15.3208C6.83677 15.3208 5.86327 14.2348 5.86327 12.9028C5.86327 11.5708 6.81877 10.4833 8.02027 10.4833C9.23077 10.4833 10.1953 11.5783 10.1773 12.9028C10.1773 14.2348 9.22177 15.3208 8.02027 15.3208ZM15.9943 15.3208C14.8123 15.3208 13.8373 14.2348 13.8373 12.9028C13.8373 11.5708 14.7928 10.4833 15.9943 10.4833C17.2048 10.4833 18.1708 11.5783 18.1513 12.9028C18.1513 14.2348 17.2048 15.3208 15.9943 15.3208Z" fill="black"/>
</g>
<defs>
<clipPath id="clip0_139_929">
<rect width="24" height="24" fill="white"/>
</clipPath>
</defs>
</svg>
