<svg width="64" height="65" viewBox="0 0 64 65" fill="none" xmlns="http://www.w3.org/2000/svg">
<path d="M14.6667 53.823L8.00004 34.4896L5.38877 21.4334C5.35193 21.2491 5.33337 21.0616 5.33337 20.8738V20.6592C5.33337 18.8323 7.70988 18.1243 8.70971 19.6535C8.78351 19.7663 8.84892 19.8844 8.90543 20.0068L14.1476 31.3651C14.4403 31.9991 15.1726 32.2999 15.8264 32.0547L16 31.9896L13.5055 13.7486C13.3952 12.942 13.6074 12.1244 14.0958 11.4731C14.7792 10.5617 16.0722 10.377 16.9835 11.0605L17.161 11.1937C17.7078 11.6038 18.1195 12.1681 18.3431 12.8141L23.8254 28.6519C23.9299 28.9538 24.2143 29.1563 24.5338 29.1563C24.9668 29.1563 25.3098 28.7906 25.2819 28.3584L24.1047 10.1127C24.0382 9.08099 24.4191 8.07061 25.15 7.33958C26.0135 6.47617 27.388 6.40005 28.3415 7.16282L28.7955 7.52599C29.5707 8.14615 30.0876 9.03245 30.2456 10.0125L33.2306 28.5192C33.2898 28.8864 33.6068 29.1563 33.9787 29.1563C34.369 29.1563 34.6954 28.8599 34.733 28.4715L36.5039 10.172C36.608 9.09645 37.1427 8.10879 37.9866 7.43378L38.2618 7.21354C39.2514 6.42189 40.6779 6.50089 41.574 7.39698C42.2736 8.09659 42.6667 9.04547 42.6667 10.0349V36.0474C42.6667 37.1023 43.8336 37.7394 44.7211 37.169L50.6824 33.3367C51.5427 32.7836 52.5438 32.4896 53.5664 32.4896H56.3244C57.358 32.4896 57.9986 33.6148 57.4708 34.5036L46 53.823C46 53.823 41.3334 59.1563 30.6667 59.1563C20 59.1563 15.5556 55.6007 14.6667 53.823Z" stroke="#E51B1B" stroke-width="3" stroke-linecap="round" stroke-linejoin="round"/>
</svg>
