<svg width="64" height="65" viewBox="0 0 64 65" fill="none" xmlns="http://www.w3.org/2000/svg">
<path d="M8 59.1572H56" stroke="#E51B1B" stroke-width="3" stroke-linecap="round" stroke-linejoin="round"/>
<path d="M22.6666 27.1572H41.3333" stroke="#E51B1B" stroke-width="3" stroke-linecap="round" stroke-linejoin="round"/>
<path d="M25.3334 27.1572H32H38.6667L42.6667 59.1572H21.3334L25.3334 27.1572Z" stroke="#E51B1B" stroke-width="3" stroke-linejoin="round"/>
<path d="M25.3334 12.4902L28 27.1569H36L38.6667 12.4902" stroke="#E51B1B" stroke-width="3" stroke-linecap="round" stroke-linejoin="round"/>
<path d="M42.6667 16.4899L38.6667 12.4899L32 5.82324L25.3334 12.4899L21.3334 16.4899" stroke="#E51B1B" stroke-width="3" stroke-linecap="round" stroke-linejoin="round"/>
<path d="M49.3334 9.82324L53.3334 5.82324" stroke="#E51B1B" stroke-width="3" stroke-linecap="round" stroke-linejoin="round"/>
<path d="M14.6666 9.82324L10.6666 5.82324" stroke="#E51B1B" stroke-width="3" stroke-linecap="round" stroke-linejoin="round"/>
<path d="M49.3334 25.8232L53.3334 29.8232" stroke="#E51B1B" stroke-width="3" stroke-linecap="round" stroke-linejoin="round"/>
<path d="M14.6666 25.8232L10.6666 29.8232" stroke="#E51B1B" stroke-width="3" stroke-linecap="round" stroke-linejoin="round"/>
<path d="M50.6666 17.8232H56" stroke="#E51B1B" stroke-width="3" stroke-linecap="round" stroke-linejoin="round"/>
<path d="M13.3333 17.8232H8" stroke="#E51B1B" stroke-width="3" stroke-linecap="round" stroke-linejoin="round"/>
<path d="M24 37.8232H40" stroke="#E51B1B" stroke-width="3" stroke-linecap="round" stroke-linejoin="round"/>
<path d="M22.6666 48.4902H41.3333" stroke="#E51B1B" stroke-width="3" stroke-linecap="round" stroke-linejoin="round"/>
<path d="M38.6666 27.1572L42.6666 59.1572" stroke="#E51B1B" stroke-width="3" stroke-linejoin="round"/>
<path d="M25.3334 27.1572L21.3334 59.1572" stroke="#E51B1B" stroke-width="3" stroke-linejoin="round"/>
</svg>
