<svg width="64" height="65" viewBox="0 0 64 65" fill="none" xmlns="http://www.w3.org/2000/svg">
<path d="M18.6666 24.4938C23.8213 24.4938 28 20.3151 28 15.1605C28 10.0058 23.8213 5.82715 18.6666 5.82715C13.512 5.82715 9.33331 10.0058 9.33331 15.1605C9.33331 20.3151 13.512 24.4938 18.6666 24.4938Z" stroke="#E51B1B" stroke-width="3" stroke-linejoin="round"/>
<path d="M45.3333 24.4938C50.488 24.4938 54.6667 20.3151 54.6667 15.1605C54.6667 10.0058 50.488 5.82715 45.3333 5.82715C40.1787 5.82715 36 10.0058 36 15.1605C36 20.3151 40.1787 24.4938 45.3333 24.4938Z" stroke="#E51B1B" stroke-width="3" stroke-linejoin="round"/>
<path d="M5.33331 59.1605C5.33331 57.9753 5.33331 53.9753 5.33331 47.1605C5.33331 39.7967 10.3603 33.8271 16.5614 33.8271C19.5556 33.8271 21.8012 33.8271 23.2982 33.8271C28.7449 33.8271 32.0001 39.1963 32.0001 39.1963" stroke="#E51B1B" stroke-width="3" stroke-linecap="round" stroke-linejoin="round"/>
<path d="M58.6667 59.1605C58.6667 57.9753 58.6667 53.9753 58.6667 47.1605C58.6667 39.7967 53.5799 33.8271 47.3051 33.8271C44.2752 33.8271 42.003 33.8271 40.488 33.8271C35.2064 33.8271 31.9896 39.1963 32 39.1963" stroke="#E51B1B" stroke-width="3" stroke-linecap="round" stroke-linejoin="round"/>
<path d="M14.6667 53.8271H50.6667" stroke="#E51B1B" stroke-width="3" stroke-linecap="round" stroke-linejoin="round"/>
<path d="M45.7272 48.8389L47.38 50.5018L50.6854 53.8275L47.38 57.2429L45.7272 58.9506" stroke="#E51B1B" stroke-width="3" stroke-linecap="round" stroke-linejoin="round"/>
<path d="M19.1057 48.8037L17.4268 50.4752L14.0689 53.818L17.4268 57.2162L19.1057 58.9154" stroke="#E51B1B" stroke-width="3" stroke-linecap="round" stroke-linejoin="round"/>
</svg>
