<svg width="25" height="24" viewBox="0 0 25 24" fill="none" xmlns="http://www.w3.org/2000/svg">
<path d="M21.5 12V4.5C21.5 3.67158 20.8285 3 20 3H5C4.17158 3 3.5 3.67158 3.5 4.5V19.5C3.5 20.3285 4.17158 21 5 21H12.5" stroke="white" stroke-width="2" stroke-linecap="round" stroke-linejoin="round"/>
<path d="M20.0254 16.5V21.5" stroke="white" stroke-width="2" stroke-linecap="round" stroke-linejoin="round"/>
<path d="M22.5 18.9746H17.5" stroke="white" stroke-width="2" stroke-linecap="round" stroke-linejoin="round"/>
<path d="M12.5 11.5C13.8807 11.5 15 10.3807 15 9C15 7.61929 13.8807 6.5 12.5 6.5C11.1193 6.5 10 7.61929 10 9C10 10.3807 11.1193 11.5 12.5 11.5Z" stroke="white" stroke-width="2" stroke-linecap="round" stroke-linejoin="round"/>
<path d="M17 15.5C17 13.2908 14.9853 11.5 12.5 11.5C10.0147 11.5 8 13.2908 8 15.5" stroke="white" stroke-width="2" stroke-linecap="round" stroke-linejoin="round"/>
</svg>
