<svg width="25" height="24" viewBox="0 0 25 24" fill="none" xmlns="http://www.w3.org/2000/svg">
<path d="M7.5 9C9.433 9 11 7.433 11 5.5C11 3.56701 9.433 2 7.5 2C5.567 2 4 3.56701 4 5.5C4 7.433 5.567 9 7.5 9Z" stroke="#333333" stroke-width="2" stroke-linejoin="round"/>
<path d="M17.5 9C19.433 9 21 7.433 21 5.5C21 3.56701 19.433 2 17.5 2C15.567 2 14 3.56701 14 5.5C14 7.433 15.567 9 17.5 9Z" stroke="#333333" stroke-width="2" stroke-linejoin="round"/>
<path d="M2.5 22C2.5 21.5556 2.5 20.0556 2.5 17.5C2.5 14.7386 4.38511 12.5 6.71055 12.5C7.83335 12.5 8.67545 12.5 9.23685 12.5C11.2793 12.5 12.5 14.5134 12.5 14.5134" stroke="#333333" stroke-width="2" stroke-linecap="round" stroke-linejoin="round"/>
<path d="M22.5 22C22.5 21.5556 22.5 20.0556 22.5 17.5C22.5 14.7386 20.5925 12.5 18.2394 12.5C17.1032 12.5 16.2511 12.5 15.683 12.5C13.7024 12.5 12.4961 14.5134 12.5 14.5134" stroke="#333333" stroke-width="2" stroke-linecap="round" stroke-linejoin="round"/>
<path d="M6 20H19.5" stroke="#333333" stroke-width="2" stroke-linecap="round" stroke-linejoin="round"/>
<path d="M17.6477 18.1289L18.2675 18.7525L19.5071 19.9997L18.2675 21.2804L17.6477 21.9208" stroke="#333333" stroke-width="2" stroke-linecap="round" stroke-linejoin="round"/>
<path d="M7.66468 18.1162L7.03508 18.743L5.77588 19.9966L7.03508 21.2709L7.66468 21.9081" stroke="#333333" stroke-width="2" stroke-linecap="round" stroke-linejoin="round"/>
</svg>
