<svg width="24" height="24" viewBox="0 0 24 24" fill="none" xmlns="http://www.w3.org/2000/svg">
<g clip-path="url(#clip0_36_427)">
<path fill-rule="evenodd" clip-rule="evenodd" d="M16.2928 4.82625C15.1269 3.59765 13.815 2.51648 12.3862 1.60687C12.1486 1.46407 11.8514 1.46407 11.6138 1.60687C10.185 2.51648 8.87305 3.59765 7.70719 4.82625C5.11781 7.545 3.75 10.5441 3.75 13.5C3.75 18.0563 7.44365 21.75 12 21.75C16.5563 21.75 20.25 18.0563 20.25 13.5C20.25 10.5441 18.8822 7.545 16.2928 4.82625ZM9 17.25C9 14.6559 11.1122 12.8175 12 12.1594C12.8888 12.8156 15 14.6559 15 17.25C15 18.9069 13.6569 20.25 12 20.25C10.3431 20.25 9 18.9069 9 17.25ZM16.2441 18.7434C16.4135 18.2638 16.5001 17.7587 16.5 17.25C16.5 13.125 12.5541 10.7072 12.3862 10.6069C12.1486 10.4641 11.8514 10.4641 11.6138 10.6069C11.4459 10.7072 7.5 13.125 7.5 17.25C7.49992 17.7587 7.58647 18.2638 7.75594 18.7434C6.17117 17.4641 5.25001 15.5367 5.25 13.5C5.25 10.2741 7.1625 7.57969 8.7675 5.88844C9.7461 4.86326 10.8295 3.94354 12 3.14438C13.1707 3.9433 14.2541 4.86303 15.2325 5.88844C18.1397 8.95312 18.75 11.7188 18.75 13.5C18.75 15.5367 17.8288 17.4641 16.2441 18.7434Z" fill="#4C4C4C"/>
</g>
<defs>
<clipPath id="clip0_36_427">
<rect width="24" height="24" fill="white"/>
</clipPath>
</defs>
</svg>
