<svg width="24" height="24" viewBox="0 0 24 24" fill="none" xmlns="http://www.w3.org/2000/svg">
<g clip-path="url(#clip0_36_414)">
<path fill-rule="evenodd" clip-rule="evenodd" d="M23.9616 17.7628C23.8987 17.5741 23.7634 17.4181 23.5854 17.3291C23.4075 17.2401 23.2015 17.2255 23.0128 17.2884L21.3797 17.8331L18.6703 12.4144C18.5433 12.1605 18.2838 12.0002 18 12H10.5V9.75H15.75C16.1642 9.75 16.5 9.41421 16.5 9C16.5 8.58579 16.1642 8.25 15.75 8.25H10.5V7.40625C11.9627 7.02857 12.9164 5.62216 12.7261 4.1235C12.5357 2.62484 11.2607 1.50151 9.75 1.50151C8.2393 1.50151 6.96427 2.62484 6.77391 4.1235C6.58356 5.62216 7.53727 7.02857 9 7.40625V8.41969C5.652 9.1849 3.41229 12.342 3.79632 15.7548C4.18034 19.1676 7.06567 21.748 10.5 21.75C13.6425 21.75 16.4709 19.6209 17.2266 16.6875C17.3301 16.2862 17.0888 15.877 16.6875 15.7734C16.2862 15.6699 15.877 15.9112 15.7734 16.3125C15.1959 18.5625 12.9291 20.25 10.5 20.25C7.89396 20.2491 5.68303 18.3367 5.30677 15.758C4.93052 13.1792 6.50285 10.7148 9 9.96937V12.75C9 13.1642 9.33579 13.5 9.75 13.5H17.5359L20.3288 19.0856C20.4961 19.4193 20.8833 19.5791 21.2372 19.4606L23.4872 18.7106C23.8797 18.5796 24.092 18.1555 23.9616 17.7628ZM8.25 4.5C8.25 3.67157 8.92157 3 9.75 3C10.5784 3 11.25 3.67157 11.25 4.5C11.25 5.32843 10.5784 6 9.75 6C8.92157 6 8.25 5.32843 8.25 4.5Z" fill="#4C4C4C"/>
</g>
<defs>
<clipPath id="clip0_36_414">
<rect width="24" height="24" fill="white"/>
</clipPath>
</defs>
</svg>
