<svg width="25" height="24" viewBox="0 0 25 24" fill="none" xmlns="http://www.w3.org/2000/svg">
<path d="M3.5 22H21.5" stroke="#E51B1B" stroke-width="2" stroke-linecap="round" stroke-linejoin="round"/>
<path d="M9 10H16" stroke="#E51B1B" stroke-width="2" stroke-linecap="round" stroke-linejoin="round"/>
<path d="M10 10H12.5H15L16.5 22H8.5L10 10Z" stroke="#E51B1B" stroke-width="2" stroke-linejoin="round"/>
<path d="M10 4.5L11 10H14L15 4.5" stroke="#E51B1B" stroke-width="2" stroke-linecap="round" stroke-linejoin="round"/>
<path d="M16.5 6L15 4.5L12.5 2L10 4.5L8.5 6" stroke="#E51B1B" stroke-width="2" stroke-linecap="round" stroke-linejoin="round"/>
<path d="M19 3.5L20.5 2" stroke="#E51B1B" stroke-width="2" stroke-linecap="round" stroke-linejoin="round"/>
<path d="M6 3.5L4.5 2" stroke="#E51B1B" stroke-width="2" stroke-linecap="round" stroke-linejoin="round"/>
<path d="M19 9.5L20.5 11" stroke="#E51B1B" stroke-width="2" stroke-linecap="round" stroke-linejoin="round"/>
<path d="M6 9.5L4.5 11" stroke="#E51B1B" stroke-width="2" stroke-linecap="round" stroke-linejoin="round"/>
<path d="M19.5 6.5H21.5" stroke="#E51B1B" stroke-width="2" stroke-linecap="round" stroke-linejoin="round"/>
<path d="M5.5 6.5H3.5" stroke="#E51B1B" stroke-width="2" stroke-linecap="round" stroke-linejoin="round"/>
<path d="M9.5 14H15.5" stroke="#E51B1B" stroke-width="2" stroke-linecap="round" stroke-linejoin="round"/>
<path d="M9 18H16" stroke="#E51B1B" stroke-width="2" stroke-linecap="round" stroke-linejoin="round"/>
<path d="M15 10L16.5 22" stroke="#E51B1B" stroke-width="2" stroke-linejoin="round"/>
<path d="M10 10L8.5 22" stroke="#E51B1B" stroke-width="2" stroke-linejoin="round"/>
</svg>
