<svg width="25" height="24" viewBox="0 0 25 24" fill="none" xmlns="http://www.w3.org/2000/svg">
<g clip-path="url(#clip0_41_714)">
<path fill-rule="evenodd" clip-rule="evenodd" d="M12.5 6C10.4289 6 8.75 7.67893 8.75 9.75C8.75 11.8211 10.4289 13.5 12.5 13.5C14.5711 13.5 16.25 11.8211 16.25 9.75C16.25 7.67893 14.5711 6 12.5 6ZM12.5 12C11.2574 12 10.25 10.9926 10.25 9.75C10.25 8.50736 11.2574 7.5 12.5 7.5C13.7426 7.5 14.75 8.50736 14.75 9.75C14.75 10.9926 13.7426 12 12.5 12ZM12.5 1.5C7.94579 1.50517 4.25517 5.19579 4.25 9.75C4.25 12.6938 5.61031 15.8138 8.1875 18.7734C9.34552 20.1108 10.6489 21.3151 12.0734 22.3641C12.3318 22.545 12.6757 22.545 12.9341 22.3641C14.356 21.3147 15.6568 20.1104 16.8125 18.7734C19.3859 15.8138 20.75 12.6938 20.75 9.75C20.7448 5.19579 17.0542 1.50517 12.5 1.5ZM12.5 20.8125C10.9503 19.5938 5.75 15.1172 5.75 9.75C5.75 6.02208 8.77208 3 12.5 3C16.2279 3 19.25 6.02208 19.25 9.75C19.25 15.1153 14.0497 19.5938 12.5 20.8125Z" fill="white"/>
</g>
<defs>
<clipPath id="clip0_41_714">
<rect width="24" height="24" fill="white" transform="translate(0.5)"/>
</clipPath>
</defs>
</svg>
