<svg width="20" height="20" viewBox="0 0 20 20" fill="none" xmlns="http://www.w3.org/2000/svg">
<path d="M16.375 2.5H3.625C3.00368 2.5 2.5 3.00368 2.5 3.625V16.375C2.5 16.9963 3.00368 17.5 3.625 17.5H16.375C16.9963 17.5 17.5 16.9963 17.5 16.375V3.625C17.5 3.00368 16.9963 2.5 16.375 2.5Z" stroke="#4C4C4C" stroke-width="2" stroke-linejoin="round"/>
<path d="M15 11.25L12.0834 12.5" stroke="#4C4C4C" stroke-width="2" stroke-linecap="round" stroke-linejoin="round"/>
<path d="M8.75004 13.75L5.83337 15" stroke="#4C4C4C" stroke-width="2" stroke-linecap="round" stroke-linejoin="round"/>
<path d="M6.66663 12.083C7.49996 10.8766 7.91663 10.0433 7.91663 9.58301C7.91663 8.89263 7.357 8.33301 6.66663 8.33301C5.97625 8.33301 5.41663 8.89263 5.41663 9.58301C5.41663 10.0433 5.83329 10.8766 6.66663 12.083Z" stroke="#4C4C4C" stroke-width="2" stroke-linejoin="round"/>
<path d="M13.3334 9.16699C14.1667 7.96058 14.5834 7.12724 14.5834 6.66699C14.5834 5.97662 14.0237 5.41699 13.3334 5.41699C12.643 5.41699 12.0834 5.97662 12.0834 6.66699C12.0834 7.12724 12.5 7.96058 13.3334 9.16699Z" stroke="#4C4C4C" stroke-width="2" stroke-linejoin="round"/>
</svg>
