<svg width="25" height="24" viewBox="0 0 25 24" fill="none" xmlns="http://www.w3.org/2000/svg">
<path d="M12.5 10C14.433 10 16 8.433 16 6.5C16 4.56701 14.433 3 12.5 3C10.567 3 9 4.56701 9 6.5C9 8.433 10.567 10 12.5 10Z" stroke="#333333" stroke-width="2" stroke-linecap="round" stroke-linejoin="round"/>
<path d="M3.5 20.4V21H21.5V20.4C21.5 18.1598 21.5 17.0397 21.0641 16.184C20.6806 15.4314 20.0686 14.8195 19.316 14.436C18.4603 14 17.3402 14 15.1 14H9.9C7.6598 14 6.5397 14 5.68405 14.436C4.93139 14.8195 4.31947 15.4314 3.93598 16.184C3.5 17.0397 3.5 18.1598 3.5 20.4Z" stroke="#333333" stroke-width="2" stroke-linecap="round" stroke-linejoin="round"/>
</svg>
